<svg width="246" height="36" fill="none" xmlns="http://www.w3.org/2000/svg"><path d="M21.316 31.944h-.563l-.003-.018-.016-.069a5.09 5.09 0 0 0-.032-.134l-.015-.063a9.523 9.523 0 0 0-.045-.177l-.005-.016a8.111 8.111 0 0 0-.055-.19l-.018-.062-.04-.129-.023-.07a6.495 6.495 0 0 0-.043-.124l-.022-.065a7.031 7.031 0 0 0-.057-.154l-.012-.032a7.571 7.571 0 0 0-.072-.18l-.027-.064-.05-.117-.032-.072a7.38 7.38 0 0 0-.084-.183c-.02-.043-.039-.085-.061-.128l-.025-.049a6.16 6.16 0 0 0-.086-.166l-.04-.07-.055-.101-.043-.075-.055-.094a2.274 2.274 0 0 0-.045-.075c-.02-.034-.04-.068-.062-.101l-.056-.092-.082-.125a5.298 5.298 0 0 0-.052-.078l-.056-.083c-.02-.027-.04-.055-.057-.082a.983.983 0 0 0-.055-.074c-.019-.024-.04-.055-.06-.083l-.055-.075c-.04-.05-.076-.1-.115-.15l-.054-.068-.07-.085-.052-.063c-.024-.03-.048-.058-.073-.086l-.051-.06-.077-.086-.045-.05a9.498 9.498 0 0 0-.29-.306l-.044-.044-.09-.088-.045-.043a7.278 7.278 0 0 0-.095-.09l-.033-.03a8.237 8.237 0 0 0-.343-.3l-.032-.026a7.135 7.135 0 0 0-.11-.088l-.036-.03c-.04-.03-.075-.06-.113-.089l-.02-.014c-.129-.1-.261-.195-.395-.288l-.018-.013a9.713 9.713 0 0 0-.127-.085l-.028-.018c-.044-.03-.087-.057-.131-.085l-.008-.005a9.483 9.483 0 0 0-.444-.265l-.006-.003a11.842 11.842 0 0 0-.143-.078l-.021-.012a9.62 9.62 0 0 0-.783-.374l-.017-.007a9.163 9.163 0 0 0-.213-.087h1.413c.23 0 .416-.251.416-.562 0-.31-.186-.56-.416-.56h-.421l.086-.215c.398-.235 1.098-.736 1.793-1.656l.005-.007c.053-.069.105-.14.155-.213l.01-.015c.051-.072.102-.147.151-.225l.014-.02.07-.113s0-.002.004-.004l.072-.119.016-.026.061-.105.012-.02.07-.123.015-.028a6.403 6.403 0 0 0 .139-.263l.015-.03.052-.107.02-.038.063-.134.013-.029.05-.112.021-.045a7.044 7.044 0 0 0 .121-.291l.02-.05.048-.124.012-.031.055-.15.019-.053.042-.12.015-.045a12.614 12.614 0 0 0 .068-.212l.04-.123c.005-.018.01-.038.016-.054a9.077 9.077 0 0 0 .097-.349l.016-.06c.014-.057.03-.115.043-.174l.012-.049.033-.141.014-.064a12.913 12.913 0 0 0 .079-.383l.013-.066.03-.169.006-.035.032-.199a16.55 16.55 0 0 0 .034-.232l.008-.05.027-.21.008-.066a8.25 8.25 0 0 0 .026-.228l.02-.22c0-.02.004-.04.006-.061l.015-.179c0-.022.003-.044.005-.066l.015-.23c0-.018 0-.038.003-.054l.01-.194c0-.024 0-.047.003-.07l.009-.244v-.035l.004-.22V14.618c0-.075-.003-.153-.005-.231v-.043c-.002-.09-.006-.18-.01-.271L19.94 14a17.182 17.182 0 0 0-.012-.232c0-.019 0-.037-.003-.058a29.902 29.902 0 0 0-.018-.283l-.005-.066-.018-.24c0-.023-.004-.046-.006-.069a27.538 27.538 0 0 0-.027-.295c0-.018-.003-.037-.005-.056l-.027-.255a23.313 23.313 0 0 0-.044-.385c0-.012-.003-.025-.005-.037a22.84 22.84 0 0 0-.036-.28l-.011-.083-.046-.322C18.098.684 6.91 2.415 6.91 2.415l.358 2.29L.5 11.48l.296 2.617 2.563 1.497c.114-.276.261-.538.438-.782 1.654-1.809 4.862-3.229 5.781-3.523.184-.059.289-.088.289-.088-4.394 5.391-3.895 11.568-3.699 13.04-.203.037-.361.27-.361.555 0 .31.187.561.417.561h1.413c-2.35.933-4.215 2.709-5.189 4.94a2.614 2.614 0 0 0-.31.836l-.02.065-.037.121-.021.075a4.219 4.219 0 0 0-.054.2c-.01.037-.02.074-.028.111-.01.038-.018.075-.027.115l-.03.13H1.36a.853.853 0 0 0-.587.22.77.77 0 0 0-.181.252.737.737 0 0 0 .18.85.821.821 0 0 0 .588.22h19.964a.853.853 0 0 0 .587-.22.772.772 0 0 0 .181-.252.737.737 0 0 0-.18-.85.853.853 0 0 0-.587-.22l-.008-.007ZM44.703 31.944h-.562c0-.006-.003-.012-.004-.018l-.016-.069a5.09 5.09 0 0 0-.031-.134l-.015-.063a9.523 9.523 0 0 0-.046-.177l-.005-.016a8.111 8.111 0 0 0-.054-.19l-.02-.062-.039-.129-.023-.07a6.495 6.495 0 0 0-.042-.124l-.023-.065a7.031 7.031 0 0 0-.057-.154l-.012-.032a7.571 7.571 0 0 0-.098-.244c-.017-.037-.034-.078-.05-.117l-.033-.072a7.38 7.38 0 0 0-.083-.183c-.02-.043-.04-.085-.062-.128-.009-.016-.016-.032-.024-.049a6.16 6.16 0 0 0-.086-.166l-.04-.07-.056-.101-.043-.075-.055-.094a2.274 2.274 0 0 0-.044-.075c-.021-.034-.04-.068-.062-.101l-.057-.092-.082-.125a5.298 5.298 0 0 0-.052-.078l-.056-.083c-.02-.027-.04-.055-.057-.082a.983.983 0 0 0-.055-.074l-.06-.083-.055-.075c-.04-.05-.076-.1-.115-.15l-.054-.068-.07-.085-.052-.063c-.024-.03-.048-.058-.073-.086l-.051-.06-.077-.086-.045-.05a9.388 9.388 0 0 0-.29-.306l-.044-.044-.09-.088-.045-.043a6.692 6.692 0 0 0-.095-.09l-.033-.03a8.173 8.173 0 0 0-.343-.3l-.032-.026a7.135 7.135 0 0 0-.11-.088l-.035-.03-.114-.089-.02-.014c-.129-.1-.26-.195-.394-.288l-.019-.013a9.083 9.083 0 0 0-.127-.085l-.028-.018c-.043-.03-.087-.057-.131-.085l-.008-.005a9.483 9.483 0 0 0-.444-.265l-.006-.003a11.842 11.842 0 0 0-.143-.078l-.02-.012a9.62 9.62 0 0 0-.784-.374l-.017-.007a9.163 9.163 0 0 0-.213-.087h1.413c.23 0 .416-.251.416-.562 0-.31-.186-.56-.416-.56h-.421l.086-.215c.398-.235 1.098-.736 1.793-1.656l.005-.007c.053-.069.105-.14.156-.213l.01-.015a6.3 6.3 0 0 0 .15-.225l.014-.02.071-.113s0-.002.003-.004l.073-.119.015-.026.062-.105.01-.02c.024-.04.047-.081.07-.123l.016-.028a6.403 6.403 0 0 0 .139-.263l.015-.03.053-.107.019-.038.063-.134.013-.029.051-.112.02-.045a6.476 6.476 0 0 0 .121-.291l.02-.05.048-.124.012-.031.055-.15.019-.053.042-.12.015-.045a12.614 12.614 0 0 0 .069-.212l.039-.123c.005-.018.01-.038.016-.054l.047-.165.015-.054.035-.13.016-.06.044-.174.011-.049.033-.141.014-.064.04-.184a9.673 9.673 0 0 0 .04-.2l.012-.065.03-.169.006-.035.033-.199.01-.067.024-.165.007-.05c.01-.07.019-.139.027-.21l.008-.066a8.25 8.25 0 0 0 .026-.228l.021-.22c0-.02.004-.04.005-.061l.015-.179c0-.022.003-.044.005-.066l.015-.23c0-.018 0-.038.003-.054l.01-.194c0-.024 0-.047.003-.07.003-.081.007-.162.009-.244v-.035l.005-.22V14.618c0-.075-.004-.153-.005-.231v-.043l-.01-.271c0-.024-.003-.048-.004-.072a17.182 17.182 0 0 0-.011-.232c0-.019 0-.037-.004-.058a26.905 26.905 0 0 0-.018-.283l-.005-.066-.018-.24c0-.023-.004-.046-.005-.069a27.538 27.538 0 0 0-.027-.295c0-.018-.004-.037-.006-.056l-.026-.255a23.313 23.313 0 0 0-.044-.385c0-.012-.004-.025-.006-.037a22.84 22.84 0 0 0-.036-.28l-.011-.083-.045-.322C41.485.684 30.296 2.415 30.296 2.415l.358 2.29-6.767 6.777.296 2.617 2.563 1.497c.115-.276.261-.538.438-.782 1.654-1.809 4.863-3.229 5.781-3.523.184-.059.289-.088.289-.088-4.394 5.391-3.894 11.568-3.699 13.04-.203.037-.36.27-.36.555 0 .31.186.561.416.561h1.413c-2.35.933-4.215 2.709-5.188 4.94a7.418 7.418 0 0 0-.31.836l-.02.065c-.013.04-.026.08-.037.121l-.022.075a4.149 4.149 0 0 0-.054.2c-.01.037-.02.074-.028.111-.01.038-.018.075-.027.115l-.029.13h-.563a.853.853 0 0 0-.587.22.737.737 0 0 0 0 1.103.853.853 0 0 0 .587.22H44.71a.853.853 0 0 0 .587-.221.772.772 0 0 0 .18-.252.737.737 0 0 0-.18-.85.853.853 0 0 0-.587-.22l-.008-.007ZM68.091 31.944h-.563c0-.006-.002-.012-.004-.018l-.015-.069a5.09 5.09 0 0 0-.032-.134l-.015-.063a9.523 9.523 0 0 0-.045-.177l-.005-.016a8.111 8.111 0 0 0-.055-.19l-.019-.062-.039-.129-.023-.07a6.495 6.495 0 0 0-.043-.124l-.023-.065a7.031 7.031 0 0 0-.056-.154l-.013-.032a7.571 7.571 0 0 0-.071-.18l-.027-.064-.05-.117-.032-.072a7.38 7.38 0 0 0-.084-.183c-.02-.043-.04-.085-.062-.128l-.024-.049a6.16 6.16 0 0 0-.086-.166l-.04-.07-.055-.101-.043-.075-.055-.094a2.274 2.274 0 0 0-.045-.075c-.02-.034-.04-.068-.062-.101l-.057-.092-.08-.125a5.298 5.298 0 0 0-.053-.078l-.056-.083c-.02-.027-.04-.055-.057-.082a.983.983 0 0 0-.055-.074c-.019-.024-.04-.055-.06-.083l-.055-.075c-.04-.05-.076-.1-.115-.15l-.054-.068-.07-.085-.052-.063c-.024-.03-.049-.058-.073-.086l-.051-.06-.077-.086-.045-.05a9.498 9.498 0 0 0-.29-.306l-.044-.044-.09-.088-.045-.043a6.692 6.692 0 0 0-.095-.09l-.033-.03a8.237 8.237 0 0 0-.344-.3l-.032-.026a7.135 7.135 0 0 0-.108-.088l-.037-.03c-.04-.03-.075-.06-.114-.089l-.019-.014c-.129-.1-.261-.195-.395-.288l-.018-.013a9.713 9.713 0 0 0-.127-.085l-.028-.018c-.044-.03-.088-.057-.131-.085l-.008-.005a9.483 9.483 0 0 0-.444-.265l-.006-.003c-.048-.027-.095-.053-.143-.078l-.021-.012a9.62 9.62 0 0 0-.783-.374l-.017-.007a9.163 9.163 0 0 0-.213-.087h1.412c.23 0 .417-.251.417-.562 0-.31-.187-.56-.417-.56h-.42l.086-.215c.398-.235 1.098-.736 1.793-1.656l.005-.007c.053-.069.104-.14.155-.213l.01-.015c.051-.072.102-.147.151-.225l.014-.02.07-.113s0-.002.004-.004l.072-.119.016-.026.061-.105.012-.02.07-.123.015-.028a6.403 6.403 0 0 0 .138-.263l.016-.03.052-.107.02-.038.062-.134.014-.029.05-.112.02-.045a6.476 6.476 0 0 0 .122-.291l.02-.05.048-.124.012-.031.055-.15.019-.053.041-.12.015-.045a12.614 12.614 0 0 0 .07-.212l.039-.123c.005-.018.01-.038.016-.054l.047-.165.015-.054.035-.13.016-.06.043-.174.012-.049.033-.141.014-.064a12.913 12.913 0 0 0 .079-.383l.013-.066.03-.169.006-.035.032-.199.01-.067.025-.165.007-.05.027-.21.008-.066a8.25 8.25 0 0 0 .025-.228l.022-.22c0-.02.003-.04.005-.061l.015-.179c0-.022.003-.044.005-.066l.015-.23c0-.018 0-.038.003-.054l.01-.194c0-.024 0-.047.003-.07l.009-.244v-.035l.004-.22V14.618c0-.075-.003-.153-.005-.231v-.043l-.01-.271-.003-.072a17.182 17.182 0 0 0-.012-.232c0-.019 0-.037-.003-.058a26.905 26.905 0 0 0-.018-.283l-.005-.066-.018-.24c0-.023-.004-.046-.006-.069a27.538 27.538 0 0 0-.027-.295c0-.018-.004-.037-.005-.056l-.027-.255a23.313 23.313 0 0 0-.044-.385c0-.012-.003-.025-.005-.037a22.84 22.84 0 0 0-.036-.28l-.011-.083-.046-.322C64.873.684 53.684 2.415 53.684 2.415l.358 2.29-6.767 6.777.296 2.617 2.563 1.497c.114-.276.261-.538.438-.782 1.653-1.809 4.862-3.229 5.781-3.523.184-.059.288-.088.288-.088-4.393 5.391-3.894 11.568-3.698 13.04-.204.037-.361.27-.361.555 0 .31.187.561.417.561h1.413c-2.35.933-4.215 2.709-5.189 4.94a7.418 7.418 0 0 0-.31.836l-.02.065-.037.121-.021.075a3.834 3.834 0 0 0-.054.2l-.029.111-.026.115-.03.13h-.563a.853.853 0 0 0-.586.22.773.773 0 0 0-.181.252.737.737 0 0 0 .18.85.822.822 0 0 0 .587.22h19.965a.853.853 0 0 0 .587-.22.772.772 0 0 0 .181-.252.737.737 0 0 0-.18-.85.853.853 0 0 0-.587-.22l-.008-.007ZM91.478 31.944h-.563l-.003-.018-.016-.069-.031-.134-.015-.063a9.523 9.523 0 0 0-.046-.177l-.005-.016a8.111 8.111 0 0 0-.054-.19l-.02-.062-.039-.129-.023-.07a6.495 6.495 0 0 0-.042-.124l-.023-.065a7.031 7.031 0 0 0-.057-.154l-.012-.032a7.571 7.571 0 0 0-.099-.244l-.05-.117-.032-.072a7.38 7.38 0 0 0-.083-.183c-.02-.043-.04-.085-.062-.128l-.025-.049a6.16 6.16 0 0 0-.085-.166l-.04-.07-.056-.101-.043-.075a9.185 9.185 0 0 0-.1-.17c-.02-.033-.039-.067-.061-.1l-.057-.092-.082-.125a5.298 5.298 0 0 0-.052-.078l-.056-.083c-.02-.027-.04-.055-.057-.082a.983.983 0 0 0-.055-.074c-.019-.024-.04-.055-.06-.083l-.055-.075c-.04-.05-.076-.1-.115-.15l-.054-.068-.07-.085-.052-.063c-.024-.03-.048-.058-.073-.086l-.051-.06-.077-.086-.045-.05a9.388 9.388 0 0 0-.29-.306l-.044-.044-.09-.088-.045-.043a6.692 6.692 0 0 0-.095-.09l-.033-.03a8.173 8.173 0 0 0-.343-.3l-.032-.026a7.135 7.135 0 0 0-.11-.088l-.036-.03c-.04-.03-.075-.06-.113-.089l-.02-.014a10.344 10.344 0 0 0-.394-.288l-.019-.013a9.083 9.083 0 0 0-.127-.085l-.028-.018c-.043-.03-.087-.057-.131-.085l-.008-.005a9.483 9.483 0 0 0-.444-.265l-.006-.003a11.842 11.842 0 0 0-.143-.078l-.02-.012a9.62 9.62 0 0 0-.784-.374l-.017-.007a9.163 9.163 0 0 0-.213-.087h1.413c.23 0 .416-.251.416-.562 0-.31-.186-.56-.416-.56h-.421l.086-.215c.398-.235 1.098-.736 1.793-1.656l.005-.007c.053-.069.105-.14.156-.213l.01-.015a6.3 6.3 0 0 0 .15-.225l.014-.02.071-.113s0-.002.003-.004l.072-.119.016-.026.061-.105.012-.02.07-.123.015-.028a6.403 6.403 0 0 0 .139-.263l.015-.03.053-.107.018-.038.064-.134.013-.029.051-.112.02-.045a6.476 6.476 0 0 0 .121-.291l.02-.05.048-.124.012-.031.055-.15.019-.053.042-.12.015-.045a11.15 11.15 0 0 0 .068-.212l.04-.123c.005-.018.01-.038.016-.054l.047-.165.015-.054.035-.13.016-.06c.015-.057.03-.115.043-.174l.012-.049.033-.141.014-.064a12.913 12.913 0 0 0 .08-.383l.012-.066.03-.169.006-.035.032-.199a16.55 16.55 0 0 0 .034-.232l.008-.05c.01-.07.019-.139.027-.21l.008-.066a8.25 8.25 0 0 0 .026-.228l.021-.22c0-.02.004-.04.005-.061l.015-.179c0-.022.003-.044.005-.066l.015-.23c0-.018 0-.038.003-.054l.01-.194c0-.024 0-.047.003-.07l.009-.244v-.035l.005-.22V14.618c0-.075-.004-.153-.006-.231v-.043a33.15 33.15 0 0 0-.01-.271L90.103 14a17.182 17.182 0 0 0-.011-.232c0-.019 0-.037-.004-.058a26.905 26.905 0 0 0-.018-.283l-.005-.066-.018-.24c0-.023-.004-.046-.006-.069a27.538 27.538 0 0 0-.027-.295c0-.018-.003-.037-.005-.056l-.026-.255a23.313 23.313 0 0 0-.044-.385c0-.012-.004-.025-.006-.037a22.84 22.84 0 0 0-.036-.28l-.011-.083-.046-.322C88.26.684 77.071 2.415 77.071 2.415l.358 2.29-6.767 6.777.296 2.617 2.563 1.497c.115-.276.261-.538.438-.782 1.654-1.809 4.863-3.229 5.781-3.523.184-.059.289-.088.289-.088-4.394 5.391-3.894 11.568-3.699 13.04-.203.037-.36.27-.36.555 0 .31.186.561.416.561h1.413c-2.35.933-4.215 2.709-5.188 4.94a8.208 8.208 0 0 0-.31.836l-.02.065-.038.121-.02.075a4.149 4.149 0 0 0-.055.2c-.01.037-.02.074-.028.111-.01.038-.018.075-.027.115l-.029.13h-.563a.853.853 0 0 0-.587.22.737.737 0 0 0 0 1.103.853.853 0 0 0 .587.22h19.965a.853.853 0 0 0 .586-.221.772.772 0 0 0 .181-.252.737.737 0 0 0-.18-.85.853.853 0 0 0-.587-.22l-.008-.007ZM99.835 15V3.344h2.997v4.613h.832l3.564-4.613h3.263l-4.495 5.445L110.658 15h-3.497l-3.497-4.945h-.832V15h-2.997Zm12.488.216a6.22 6.22 0 0 1-.383-.016c-.155 0-.278-.011-.366-.034v-2.63c.033.01.116.016.249.016a1.7 1.7 0 0 0 .567-.083c.166-.067.305-.2.416-.4.111-.21.205-.516.283-.915.089-.4.15-.933.183-1.599.033-.677.05-1.526.05-2.548V3.344h8.825V15h-3.014V5.792h-3.014V7.34c0 1.388-.055 2.554-.166 3.497-.111.933-.278 1.688-.5 2.265-.21.577-.471 1.021-.782 1.332a2.47 2.47 0 0 1-1.066.616 4.654 4.654 0 0 1-1.282.166Zm14.494 0c-.122 0-.244-.005-.366-.016a.851.851 0 0 1-.3-.05v-2.481l.267.033c.089.011.194.017.316.017.322 0 .572-.022.749-.067a.849.849 0 0 0 .417-.266c.1-.133.183-.311.249-.533l-4.679-8.509h3.048l3.097 5.911 2.431-5.91h2.931l-3.897 8.808a10.1 10.1 0 0 1-.766 1.448 3.527 3.527 0 0 1-.849.95c-.311.232-.683.399-1.116.499-.422.111-.932.166-1.532.166Zm9.491-.216V3.344h8.575V5.81h-5.578V7.54h1.915c1.621 0 2.814.333 3.58 1 .777.654 1.166 1.537 1.166 2.647 0 1.199-.389 2.137-1.166 2.814-.766.666-1.959.999-3.58.999h-4.912Zm2.997-2.464h1.582c.722 0 1.232-.117 1.532-.35.3-.244.45-.577.45-1 0-.421-.15-.748-.45-.982-.3-.244-.81-.366-1.532-.366h-1.582v2.698ZM105.896 33v-4.646c-.289.189-.672.361-1.149.517-.467.144-1.022.216-1.665.216-1.21 0-2.126-.3-2.748-.9-.61-.61-.916-1.587-.916-2.93v-3.913h2.997v3.414c0 .655.139 1.126.417 1.415.277.278.666.416 1.165.416.455 0 .838-.05 1.149-.15.311-.11.561-.227.75-.35v-4.745h3.013V33h-3.013Zm5.337 0V21.344h8.493v2.298h-5.495v2.281h4.995v2.165h-4.995v2.614h5.495V33h-8.493Zm13.48 0v-9.192h-3.58v-2.464h10.157v2.464h-3.58V33h-2.997Zm8.083 0V21.344h2.997v3.863h1.415c1.621 0 2.814.35 3.58 1.05.777.699 1.166 1.648 1.166 2.847 0 1.198-.389 2.148-1.166 2.847-.766.7-1.959 1.049-3.58 1.049h-4.412Zm2.997-2.464h1.082c.699 0 1.205-.134 1.515-.4.311-.266.467-.61.467-1.032 0-.422-.156-.766-.467-1.033-.31-.266-.816-.4-1.515-.4h-1.082v2.865ZM142.786 33V21.344h2.998V33h-2.998Zm5.327 0V21.344h4.746c1.088 0 1.982.161 2.681.483.699.31 1.215.766 1.548 1.365.345.589.517 1.3.517 2.132 0 .821-.172 1.532-.517 2.131-.333.6-.849 1.06-1.548 1.382-.699.311-1.593.466-2.681.466h-1.748V33h-2.998Zm2.998-6.161h1.415c.766 0 1.304-.128 1.615-.383.311-.255.466-.633.466-1.132 0-.5-.155-.877-.466-1.133-.311-.255-.849-.383-1.615-.383h-1.415v3.031ZM159.268 33V21.344h8.493v2.298h-5.495v2.281h4.995v2.165h-4.995v2.614h5.495V33h-8.493Zm9.654 0 3.797-6.078-3.63-5.578h3.313l2.282 3.53 2.314-3.53h3.247l-3.613 5.545 3.78 6.111h-3.347l-2.431-4.08-2.431 4.08h-3.281Zm17.23 0V21.344h2.997v4.612h.833l3.563-4.612h3.264l-4.496 5.445L196.975 33h-3.497l-3.496-4.945h-.833V33h-2.997Zm17.327.217a7.005 7.005 0 0 1-2.165-.334 4.874 4.874 0 0 1-1.815-1.049c-.521-.477-.932-1.093-1.232-1.848-.3-.766-.45-1.676-.45-2.73v-.334c0-1.021.15-1.898.45-2.63.3-.733.711-1.333 1.232-1.799a4.991 4.991 0 0 1 1.815-1.032 7.008 7.008 0 0 1 2.165-.333c.777 0 1.504.11 2.181.333a5.016 5.016 0 0 1 1.799 1.032c.521.466.932 1.066 1.232 1.798.299.733.449 1.61.449 2.631v.333c0 1.055-.15 1.965-.449 2.731-.3.755-.711 1.371-1.232 1.848a4.897 4.897 0 0 1-1.799 1.05 6.955 6.955 0 0 1-2.181.333Zm-.017-2.498c.455 0 .877-.1 1.266-.3.388-.21.699-.56.932-1.049.244-.5.367-1.204.367-2.115v-.333c0-.866-.123-1.537-.367-2.015-.233-.477-.544-.81-.932-.999a2.862 2.862 0 0 0-1.266-.283c-.433 0-.843.095-1.232.283-.388.19-.705.522-.949 1-.244.477-.366 1.148-.366 2.014v.333c0 .91.122 1.616.366 2.115.244.488.561.838.949 1.05.389.199.799.299 1.232.299ZM211.047 33V21.344h2.998v4.43h4.329v-4.43h2.997V33h-2.997v-4.762h-4.329V33h-2.998Zm12.651 0V21.344h8.493v2.298h-5.495v2.281h4.995v2.165h-4.995v2.614h5.495V33h-8.493Zm10.408 0V21.344h2.997v6.994l4.579-6.994h2.747V33h-2.997v-6.994L236.853 33h-2.747Zm5.161-12.305c-.777 0-1.415-.106-1.914-.317-.489-.222-.85-.544-1.083-.965-.222-.422-.333-.95-.333-1.582h2.431c0 .466.067.782.2.949.144.155.377.233.699.233.322 0 .55-.078.683-.233.144-.167.217-.483.217-.95h2.431c0 .633-.117 1.16-.35 1.583-.222.421-.577.743-1.066.965-.488.211-1.126.317-1.915.317Z" fill="#595653"/></svg>